<mxfile host="app.diagrams.net" modified="2022-04-04T02:21:41.930Z" agent="5.0 (X11; Linux x86_64) AppleWebKit/537.36 (KHTML, like Gecko) Chrome/100.0.4896.60 Safari/537.36" etag="dQZMJgNnMIHiOYN_belW" version="17.4.0" type="github">
  <diagram id="mCkw_Y7Q0L7BkeXz3Ouw" name="Page-1">
    <mxGraphModel dx="746" dy="798" grid="1" gridSize="10" guides="1" tooltips="1" connect="1" arrows="1" fold="1" page="1" pageScale="1" pageWidth="850" pageHeight="1100" math="0" shadow="0">
      <root>
        <mxCell id="0" />
        <mxCell id="1" parent="0" />
        <object label="" Name="mainStage" id="Ip1jwHcz1JyYlcXKv4jl-2">
          <mxCell style="rounded=1;whiteSpace=wrap;html=1;" vertex="1" parent="1">
            <mxGeometry x="40" y="40" width="680" height="720" as="geometry" />
          </mxCell>
        </object>
        <object label="" Name="FlowPane rootNode" id="Ip1jwHcz1JyYlcXKv4jl-5">
          <mxCell style="rounded=0;whiteSpace=wrap;html=1;fillColor=#dae8fc;strokeColor=#6c8ebf;" vertex="1" parent="1">
            <mxGeometry x="95" y="65" width="570" height="670" as="geometry" />
          </mxCell>
        </object>
        <object label="" Name="FlowPane subNode1" id="Ip1jwHcz1JyYlcXKv4jl-3">
          <mxCell style="rounded=0;whiteSpace=wrap;html=1;" vertex="1" parent="1">
            <mxGeometry x="112.5" y="70" width="535" height="110" as="geometry" />
          </mxCell>
        </object>
        <object label="" Name="FlowPane subNode2" id="Ip1jwHcz1JyYlcXKv4jl-4">
          <mxCell style="rounded=0;whiteSpace=wrap;html=1;" vertex="1" parent="1">
            <mxGeometry x="112.5" y="190" width="537.5" height="510" as="geometry" />
          </mxCell>
        </object>
        <object label="" Name="GridPane leftTable" id="Ip1jwHcz1JyYlcXKv4jl-7">
          <mxCell style="rounded=0;whiteSpace=wrap;html=1;sketch=0;gradientDirection=north;fillColor=#fff2cc;strokeColor=#d6b656;" vertex="1" parent="1">
            <mxGeometry x="140" y="240" width="220" height="430" as="geometry" />
          </mxCell>
        </object>
        <object label="" Name="GridPane rightTable" id="Ip1jwHcz1JyYlcXKv4jl-8">
          <mxCell style="rounded=0;whiteSpace=wrap;html=1;sketch=0;gradientDirection=north;fillColor=#fff2cc;strokeColor=#d6b656;" vertex="1" parent="1">
            <mxGeometry x="410" y="240" width="215" height="430" as="geometry" />
          </mxCell>
        </object>
      </root>
    </mxGraphModel>
  </diagram>
</mxfile>
